<svg xmlns:xlink="http://www.w3.org/1999/xlink" data-src="https://widget.babydogeswap.com/images/widget.svg" style="width: 70px; height: 70px;" xmlns="http://www.w3.org/2000/svg" width="367.244" height="367.244" viewBox="0 0 367.244 367.244" data-id="svg-loader_1">
  <g id="Group_1_2" data-name="Group 1" transform="translate(-3610 4657)">
    <path id="Path_4554_3" data-name="Path 4554" d="M367.244,183.622A183.622,183.622,0,1,1,183.622,0,183.622,183.622,0,0,1,367.244,183.622" transform="translate(3610 -4657)" fill="#158DE8" class="fill-option"></path>
    <g id="Group_3750_4" data-name="Group 3750" transform="translate(3684.128 -4622.787)">
      <path id="Path_4556_5" data-name="Path 4556" d="M256.657,193.216a64.739,64.739,0,0,0-4.074-13.987c-6.268-15.431-18.614-32.859-35.04-49.284-33.208-33.208-70.509-49.746-87.159-33.1l-13.519,13.519c-16.775,16.775-.112,53.951,33.1,87.159,16.432,16.426,33.833,28.811,49.258,35.093a64.168,64.168,0,0,0,13.974,4.074,183.4,183.4,0,0,1,20.018-23.5c1.292-1.3,2.6-2.564,3.9-3.8-5.306,1.47-12.794-.719-17.23-2.36-.56-.21-1.074-.408-1.523-.586-13.836-5.537-29.852-16.98-45.1-32.226s-26.689-31.257-32.226-45.092c-2-5.016-6.11-17.243-.863-22.49,5.187-5.187,17.434-1.081,22.457.923,13.895,5.536,29.918,16.959,45.125,32.173s26.636,31.23,32.173,45.125c.31.784.679,1.747,1.055,2.835,1.622,4.726,3.388,11.778,1.694,16.616a168.306,168.306,0,0,1,13.981-11.093m-93.183-9.209c15.51,15.51,31.883,27.407,46.648,33.979a70.97,70.97,0,0,0,14.1,4.726c-4.865,1.668-11.851-.086-16.551-1.694-1.081-.376-2.044-.739-2.828-1.054-13.836-5.537-29.846-16.98-45.092-32.226s-26.695-31.263-32.225-45.1c-1.681-4.186-4.805-13.394-2.749-19.372,3.777,17.869,18.034,40.069,38.7,60.74" transform="translate(-104.984 -90.295)" fill="#FFFFFF"></path>
      <path id="Path_4557_6" data-name="Path 4557" d="M347.426,207.137l-13.519-13.512c-11.845-11.852-34.151-6.895-58,8.912q-5.764,3.826-11.6,8.463a205.887,205.887,0,0,0-17.559,15.714q-1.809,1.809-3.54,3.625-5.2,5.437-9.762,10.955c-.837,1.008-1.654,2.023-2.452,3.032-3.084,3.882-5.912,7.765-8.45,11.6-15.787,23.828-20.724,46.107-8.885,57.946l13.519,13.519c16.775,16.775,53.951.112,87.152-33.1s49.877-70.377,33.1-87.159M223.447,304.084c-5.188-5.18-1.088-17.428.916-22.457A106.572,106.572,0,0,1,236.518,260a183.524,183.524,0,0,1,20.018-23.5q1.938-1.947,3.9-3.8c1.846-1.753,3.7-3.453,5.563-5.082a168.227,168.227,0,0,1,13.98-11.094,107.1,107.1,0,0,1,21.685-12.194c5.023-2,17.27-6.1,22.451-.915,5.247,5.24,1.147,17.474-.863,22.483-5.537,13.835-16.979,29.853-32.225,45.1s-31.263,26.689-45.092,32.226c-5.016,2-17.25,6.11-22.49.863m113.327-64.669c-5.537,13.836-16.979,29.846-32.225,45.092s-31.264,26.695-45.1,32.232c-4.185,1.674-13.394,4.8-19.372,2.742,17.863-3.771,40.07-18.034,60.74-38.7s34.929-42.877,38.7-60.747c2.063,5.985-1.068,15.194-2.742,19.379" transform="translate(-128.31 -113.611)" fill="#FFFFFF"></path>
      <path id="Path_4558_7" data-name="Path 4558" d="M128.129,392.446a9.538,9.538,0,0,1-2.656,5.9,9.863,9.863,0,0,1-7.935,3.485q-4.437-.239-9.061-4.582L95.012,384.605l27.179-28.935,13.138,12.339q4.421,4.152,5.028,8.344a9.06,9.06,0,0,1-2.736,7.752,9.275,9.275,0,0,1-5.486,3.052,8.793,8.793,0,0,1-5.776-1.15,9.944,9.944,0,0,1,1.771,6.439m-8.895-1.806a4.177,4.177,0,0,0,1.263-3.4,5.934,5.934,0,0,0-2.079-3.61l-4.952-4.652-6.112,6.508,4.993,4.69q3.889,3.652,6.887.46m-1.155-16.568,4.583,4.3q3.642,3.422,6.564.312t-.8-6.609l-4.5-4.229Z" transform="translate(-95.012 -153.359)" fill="#FFFFFF"></path>
      <path id="Path_4559_8" data-name="Path 4559" d="M181.329,409.254l-14.574,27.735-8.549-4.492,2.638-5.021a10.4,10.4,0,0,1-5.591,2.009A11.664,11.664,0,0,1,149,428.042a10.845,10.845,0,0,1-5.909-7.165q-1.138-4.656,1.788-10.224l8.462-16.1,8.45,4.44-7.914,15.061a6.991,6.991,0,0,0-.845,5.17,5.818,5.818,0,0,0,3.129,3.642,5.911,5.911,0,0,0,4.937.5,7.576,7.576,0,0,0,3.947-3.889l7.731-14.713Z" transform="translate(-108.392 -164.25)" fill="#FFFFFF"></path>
      <path id="Path_4560_9" data-name="Path 4560" d="M203.818,417.238l3.271,20.364,10.939-17.273,10.371,2.256-28.927,41.057L189.156,461.4l10.612-14.184-6.431-32.257Z" transform="translate(-121.385 -169.967)" fill="#FFFFFF"></path>
      <path id="Path_4561_10" data-name="Path 4561" d="M286.084,423.549q3.636,3.124,4.5,9.351l2.506,18.019-9.51,1.323-2.352-16.907a6.911,6.911,0,0,0-2.318-4.637,5.751,5.751,0,0,0-4.609-1.145,6,6,0,0,0-4.333,2.473A7.494,7.494,0,0,0,269,437.49l2.291,16.461-9.51,1.323-4.318-31.032,9.51-1.323.79,5.673a10.337,10.337,0,0,1,3.366-4.947,11.772,11.772,0,0,1,5.976-2.476,10.848,10.848,0,0,1,8.977,2.379" transform="translate(-140.52 -171.667)" fill="#FFFFFF"></path>
      <path id="Path_4562_11" data-name="Path 4562" d="M326.81,407.61a14.212,14.212,0,0,1,7.53,2.823,18.352,18.352,0,0,1,6.8,15.659,14.2,14.2,0,0,1-3.082,7.427,18.977,18.977,0,0,1-15.324,6.651,14.163,14.163,0,0,1-7.556-2.812A18.354,18.354,0,0,1,308.38,421.7a14.16,14.16,0,0,1,3.107-7.438,18.981,18.981,0,0,1,15.324-6.65m-8.568,12.839a8.077,8.077,0,0,0,.566,6.029,7.967,7.967,0,0,0,4.006,4.5,6.154,6.154,0,0,0,5.031-.041,6.071,6.071,0,0,0,3.442-3.636,8.043,8.043,0,0,0-.581-5.991,8.151,8.151,0,0,0-3.99-4.542,6.036,6.036,0,0,0-5.018,0,6.121,6.121,0,0,0-3.456,3.673" transform="translate(-154.756 -167.896)" fill="#FFFFFF"></path>
      <path id="Path_4563_12" data-name="Path 4563" d="M377.665,360.119l14.577,28.873-8.075,7.059-18.091-12.077,9.51,19.58-8.075,7.059-26.666-18.3,7.229-6.32,17.985,14.259L355.6,379.411l7.693-6.727,19.417,13.082-11.765-19.771Z" transform="translate(-163.877 -154.605)" fill="#FFFFFF"></path>
    </g>
  </g>
</svg>